<svg width="75" height="75" viewBox="0 0 75 75" fill="none" xmlns="http://www.w3.org/2000/svg">
<path d="M59.8498 37.5V20.6715L37.5 0V15.1463H20.6749L0 37.5H15.1502V54.3249L37.5 75V59.8483H54.3269L75 37.5H59.8498ZM40.3816 6.59325L55.3556 20.4419L43.1956 29.602C42.3422 28.9839 41.3934 28.5095 40.3869 28.1975L40.3816 6.59325ZM6.5944 34.6163L20.4453 19.6409L29.6045 31.8039C28.9846 32.6581 28.509 33.6082 28.1966 34.6163H6.5944ZM34.6148 68.4067L19.6444 54.5545L31.8044 45.3945C32.6575 46.0161 33.6078 46.4919 34.6166 46.8025L34.6148 68.4067ZM43.7509 40.3837C43.6922 40.51 43.6281 40.6382 43.564 40.761C42.973 41.8549 42.0976 42.7689 41.0303 43.4065C39.9629 44.0441 38.7432 44.3816 37.5 44.3834C36.504 44.3863 35.5196 44.1699 34.6166 43.7497C34.4885 43.6945 34.3621 43.6304 34.2393 43.5628C33.1425 42.9756 32.226 42.1013 31.5877 41.0334C30.9494 39.9655 30.6134 38.7441 30.6155 37.5C30.6131 36.5044 30.8281 35.5202 31.2455 34.6163C31.3043 34.49 31.3684 34.3618 31.436 34.239C32.2651 32.6941 33.6527 31.5242 35.3153 30.968C36.9778 30.4119 38.79 30.5116 40.3816 31.2467C40.508 31.3019 40.6361 31.366 40.7589 31.4247C41.8555 32.0156 42.7716 32.8924 43.4099 33.9621C44.0483 35.0317 44.385 36.2543 44.3845 37.5C44.3874 38.4961 44.1711 39.4806 43.7509 40.3837V40.3837ZM45.3955 43.1961C46.0135 42.3426 46.4879 41.3938 46.7998 40.3872H68.4056L54.5547 55.3627L45.3955 43.1961Z" fill="white"/>
</svg>
