<svg width="785" height="722" viewBox="0 0 785 722" fill="none" xmlns="http://www.w3.org/2000/svg">
<path d="M117.399 685.629C100.878 659.139 91.6938 628.735 90.7876 597.529H0.273926C0.986955 635.367 9.74994 672.62 25.9798 706.809C27.247 709.585 28.6349 712.3 30.0228 715.016H140.087C131.541 706.02 123.938 696.173 117.399 685.629Z" fill="white" fill-opacity="0.85"/>
<path d="M439.748 485.171C396.393 455.624 345.22 439.658 292.754 439.311C258.265 439.358 224.536 429.175 195.836 410.048C167.136 390.922 144.754 363.712 131.523 331.862C118.291 300.011 114.804 264.952 121.504 231.12C128.203 197.287 144.787 166.202 169.158 141.797C193.529 117.393 224.591 100.766 258.414 94.0195C292.237 87.2734 327.301 90.7115 359.17 103.899C391.038 117.086 418.279 139.431 437.445 168.104C456.612 196.778 466.842 230.492 466.842 264.981C466.842 266.912 466.842 268.843 466.842 271.016C493.768 260.51 522.419 255.128 551.322 255.145H557.356C555.449 203.406 538.422 153.36 508.379 111.193C478.337 69.0256 436.597 36.5864 388.318 17.885C340.039 -0.816381 287.338 -4.96015 236.729 5.96592C186.121 16.892 139.823 42.4089 103.56 79.3625C67.2964 116.316 42.6568 163.086 32.6867 213.892C22.7167 264.697 27.8532 317.311 47.4614 365.229C67.0696 413.146 100.29 454.268 143.016 483.51C185.742 512.752 236.1 528.833 287.866 529.764H290.702C301.371 529.765 312.017 530.755 322.503 532.721C362.501 540.18 398.634 561.386 424.65 592.669C450.666 623.952 464.929 663.345 464.972 704.033V704.456C464.972 710.007 464.972 715.498 464.127 720.929H554.64C555.003 715.317 555.184 709.705 555.184 704.033C555.276 660.9 544.804 618.4 524.681 580.248C504.559 542.096 475.398 509.453 439.748 485.171Z" fill="white" fill-opacity="0.85"/>
<path d="M784.424 487.947C784.427 427.135 760.667 368.73 718.211 325.192C675.755 281.654 617.967 256.431 557.174 254.904H551.14C498.301 254.912 447.033 272.882 405.751 305.864C364.469 338.845 335.624 384.88 323.951 436.414C323.589 437.983 323.227 439.612 322.925 441.242C349.143 444.407 374.734 451.507 398.836 462.301C404.856 426.753 423.094 394.42 450.402 370.88C477.71 347.339 512.378 334.066 548.425 333.349H551.321C591.861 333.723 630.633 349.999 659.291 378.675C687.949 407.351 704.202 446.133 704.55 486.673C704.898 527.213 689.313 566.268 661.152 595.432C632.99 624.596 594.503 641.535 553.976 642.605H548.364C553.152 662.77 555.562 683.427 555.545 704.154C555.545 709.826 555.545 715.438 555.002 721.05H784.303V642.605H725.711C763.6 600.005 784.498 544.958 784.424 487.947Z" fill="white"/>
</svg>
